<svg xmlns="http://www.w3.org/2000/svg" width="51.185" height="34.423" viewBox="0 0 51.185 34.423">
  <path id="Icon_awesome-eye" data-name="Icon awesome-eye" d="M50.876,20.4A28.48,28.48,0,0,0,25.593,4.5,28.484,28.484,0,0,0,.309,20.4a2.923,2.923,0,0,0,0,2.617,28.48,28.48,0,0,0,25.283,15.9,28.484,28.484,0,0,0,25.283-15.9A2.923,2.923,0,0,0,50.876,20.4ZM25.593,34.62a12.909,12.909,0,1,1,12.8-12.909A12.853,12.853,0,0,1,25.593,34.62Zm0-21.514a8.4,8.4,0,0,0-2.249.34,4.317,4.317,0,0,1-.418,5.575,4.225,4.225,0,0,1-5.527.422,8.623,8.623,0,0,0,3.472,9.379,8.451,8.451,0,0,0,9.92-.316,8.631,8.631,0,0,0,2.879-9.582,8.517,8.517,0,0,0-8.077-5.818Z" transform="translate(0 -4.5)" fill="#eaebee"/>
</svg>
